<?xml version="1.0" encoding="UTF-8" standalone="no"?>
<!-- Generator: Adobe Illustrator 12.0.1, SVG Export Plug-In . SVG Version: 6.00 Build 51448)  -->
<svg
   xmlns:dc="http://purl.org/dc/elements/1.1/"
   xmlns:cc="http://web.resource.org/cc/"
   xmlns:rdf="http://www.w3.org/1999/02/22-rdf-syntax-ns#"
   xmlns:svg="http://www.w3.org/2000/svg"
   xmlns="http://www.w3.org/2000/svg"
   xmlns:sodipodi="http://sodipodi.sourceforge.net/DTD/sodipodi-0.dtd"
   xmlns:inkscape="http://www.inkscape.org/namespaces/inkscape"
   version="1.1"
   id="Layer_1"
   width="651.837"
   height="530.796"
   viewBox="0 0 651.837 530.796"
   style="overflow:visible;enable-background:new 0 0 651.837 530.796;"
   xml:space="preserve"
   sodipodi:version="0.32"
   inkscape:version="0.45.1"
   sodipodi:docname="Xanthan.svg"
   inkscape:output_extension="org.inkscape.output.svg.inkscape"
   sodipodi:docbase="C:\"><metadata
   id="metadata396"><rdf:RDF><cc:Work
       rdf:about=""><dc:format>image/svg+xml</dc:format><dc:type
         rdf:resource="http://purl.org/dc/dcmitype/StillImage" /></cc:Work></rdf:RDF></metadata><defs
   id="defs394" /><sodipodi:namedview
   inkscape:window-height="579"
   inkscape:window-width="801"
   inkscape:pageshadow="2"
   inkscape:pageopacity="0.0"
   guidetolerance="10.0"
   gridtolerance="10.0"
   objecttolerance="10.0"
   borderopacity="1.0"
   bordercolor="#666666"
   pagecolor="#ffffff"
   id="base"
   inkscape:zoom="0.71213797"
   inkscape:cx="325.91849"
   inkscape:cy="265.39801"
   inkscape:window-x="22"
   inkscape:window-y="22"
   inkscape:current-layer="Layer_1" />
<path
   style="fill:#231f20"
   d="M 366.12203,132.01992 L 368.87608,134.44242 L 368.06858,136.86492 L 317.14952,136.86492 L 319.85607,134.44242 L 320.66358,132.01992 L 366.12203,132.01992 z "
   id="polygon3" />
<path
   style="fill:#231f20"
   d="M 285.98858,101.90492 L 285.18107,99.814925 L 286.36857,99.767425 L 319.04953,128.88492 L 319.85607,134.44242 L 317.14952,136.86492 L 285.98858,101.90492 z "
   id="polygon5" />
<path
   style="fill:#231f20"
   d="M 319.04953,64.807425 L 319.85607,65.139925 L 320.18858,65.947425 L 286.36857,99.767425 L 285.18107,99.814925 L 284.37453,99.482425 L 319.04953,64.807425 z "
   id="polygon7" />
<g
   id="g9"
   transform="matrix(0.95,0,0,0.95,16.295925,13.269925)">
	<path
   style="fill:#231f20"
   d="M 362.894,55.685 C 362.894,52.832 363.66,50.6 365.191,48.987 C 366.724,47.373 368.701,46.566 371.125,46.566 C 372.711,46.566 374.142,46.945 375.416,47.703 C 376.689,48.462 377.66,49.518 378.329,50.874 C 378.998,52.23 379.332,53.768 379.332,55.486 C 379.332,57.229 378.98,58.788 378.276,60.163 C 377.572,61.538 376.576,62.58 375.287,63.287 C 373.996,63.994 372.605,64.348 371.113,64.348 C 369.494,64.348 368.049,63.957 366.775,63.176 C 365.5,62.395 364.535,61.327 363.879,59.976 C 363.223,58.625 362.894,57.194 362.894,55.685 z M 365.238,55.714 C 365.238,57.784 365.795,59.415 366.908,60.607 C 368.023,61.798 369.42,62.394 371.101,62.394 C 372.812,62.394 374.222,61.792 375.328,60.589 C 376.434,59.386 376.988,57.679 376.988,55.468 C 376.988,54.07 376.752,52.849 376.278,51.806 C 375.804,50.763 375.113,49.954 374.203,49.38 C 373.292,48.806 372.269,48.519 371.137,48.519 C 369.526,48.519 368.141,49.072 366.979,50.177 C 365.818,51.283 365.238,53.128 365.238,55.714 z "
   id="path11" />
</g>
<path
   style="fill:#231f20"
   d="M 358.85357,64.332425 L 358.85357,65.947425 L 320.18858,65.947425 L 319.85607,65.139925 L 320.66358,64.332425 L 358.85357,64.332425 z "
   id="polygon13" />
<path
   style="fill:#231f20"
   d="M 402.69703,97.867425 L 403.50358,99.814925 L 402.36358,99.767425 L 376.14358,73.594925 L 377.28453,72.407425 L 402.69703,97.867425 z "
   id="polygon15" />
<path
   style="fill:#231f20"
   d="M 369.68453,139.00242 L 368.87608,134.44242 L 366.12203,132.01992 L 402.36358,99.767425 L 403.50358,99.814925 L 404.31108,100.09992 L 369.68453,139.00242 z "
   id="polygon17" />
<g
   id="g19"
   transform="matrix(0.95,0,0,0.95,16.295925,13.269925)">
	<path
   style="fill:#231f20"
   d="M 362.894,168.334 C 362.894,165.481 363.66,163.249 365.191,161.636 C 366.724,160.022 368.701,159.215 371.125,159.215 C 372.711,159.215 374.142,159.594 375.416,160.352 C 376.689,161.111 377.66,162.167 378.329,163.523 C 378.998,164.879 379.332,166.417 379.332,168.135 C 379.332,169.878 378.98,171.437 378.276,172.812 C 377.572,174.187 376.576,175.229 375.287,175.936 C 373.996,176.643 372.605,176.997 371.113,176.997 C 369.494,176.997 368.049,176.606 366.775,175.825 C 365.5,175.044 364.535,173.976 363.879,172.625 C 363.223,171.274 362.894,169.843 362.894,168.334 z M 365.238,168.364 C 365.238,170.434 365.795,172.065 366.908,173.257 C 368.023,174.448 369.42,175.044 371.101,175.044 C 372.812,175.044 374.222,174.442 375.328,173.239 C 376.434,172.036 376.988,170.329 376.988,168.118 C 376.988,166.72 376.752,165.499 376.278,164.456 C 375.804,163.413 375.113,162.604 374.203,162.03 C 373.292,161.456 372.269,161.169 371.137,161.169 C 369.526,161.169 368.141,161.722 366.979,162.827 C 365.818,163.932 365.238,165.778 365.238,168.364 z "
   id="path21" />
	<path
   style="fill:#231f20"
   d="M 382.343,176.7 L 382.343,159.512 L 384.624,159.512 L 384.624,166.575 L 393.515,166.575 L 393.515,159.512 L 395.796,159.512 L 395.796,176.7 L 393.515,176.7 L 393.515,168.606 L 384.624,168.606 L 384.624,176.7 L 382.343,176.7 z "
   id="path23" />
</g>
<path
   style="fill:#231f20"
   d="M 369.68453,162.37242 L 368.06858,162.37242 L 368.06858,136.86492 L 368.87608,134.44242 L 369.68453,139.00242 L 369.68453,162.37242 z "
   id="polygon25" />
<path
   style="fill:#231f20"
   d="M 285.98858,139.47742 L 284.37453,135.53492 L 284.37453,99.482425 L 285.18107,99.814925 L 285.98858,101.90492 L 285.98858,139.47742 z "
   id="polygon27" />
<g
   id="g29"
   transform="matrix(0.95,0,0,0.95,16.295925,13.269925)">
	<path
   style="fill:#231f20"
   d="M 311.344,88.985 C 311.344,86.132 312.11,83.9 313.642,82.287 C 315.174,80.673 317.152,79.866 319.575,79.866 C 321.162,79.866 322.592,80.245 323.866,81.003 C 325.14,81.762 326.112,82.818 326.78,84.174 C 327.448,85.53 327.782,87.068 327.782,88.786 C 327.782,90.529 327.43,92.088 326.727,93.463 C 326.024,94.838 325.027,95.88 323.737,96.587 C 322.447,97.294 321.056,97.648 319.563,97.648 C 317.945,97.648 316.499,97.257 315.225,96.476 C 313.951,95.695 312.986,94.627 312.329,93.276 C 311.672,91.925 311.344,90.494 311.344,88.985 z M 313.688,89.014 C 313.688,91.084 314.245,92.715 315.359,93.907 C 316.473,95.099 317.871,95.694 319.551,95.694 C 321.263,95.694 322.672,95.092 323.779,93.889 C 324.885,92.686 325.438,90.979 325.438,88.768 C 325.438,87.37 325.202,86.149 324.729,85.106 C 324.256,84.063 323.564,83.254 322.653,82.68 C 321.742,82.106 320.72,81.819 319.587,81.819 C 317.977,81.819 316.591,82.372 315.43,83.477 C 314.269,84.582 313.688,86.428 313.688,89.014 z "
   id="path31" />
	<path
   style="fill:#231f20"
   d="M 330.792,97.35 L 330.792,80.163 L 333.073,80.163 L 333.073,87.226 L 341.964,87.226 L 341.964,80.163 L 344.245,80.163 L 344.245,97.35 L 341.964,97.35 L 341.964,89.256 L 333.073,89.256 L 333.073,97.35 L 330.792,97.35 z "
   id="path33" />
</g>
<path
   style="fill:#231f20"
   d="M 319.04953,108.12742 L 320.66358,108.12742 L 320.66358,132.01992 L 319.85607,134.44242 L 319.04953,128.88492 L 319.04953,108.12742 z "
   id="polygon35" />
<g
   id="g37"
   transform="matrix(0.95,0,0,0.95,16.295925,13.269925)">
	<path
   style="fill:#231f20"
   d="M 325.031,18.323 L 327.312,18.897 C 326.836,20.767 325.98,22.193 324.743,23.174 C 323.506,24.155 321.993,24.647 320.206,24.647 C 318.356,24.647 316.852,24.27 315.693,23.515 C 314.534,22.761 313.652,21.667 313.047,20.237 C 312.442,18.806 312.14,17.269 312.14,15.628 C 312.14,13.838 312.481,12.275 313.164,10.942 C 313.847,9.609 314.818,8.595 316.079,7.904 C 317.339,7.213 318.725,6.866 320.239,6.866 C 321.956,6.866 323.399,7.304 324.569,8.18 C 325.739,9.057 326.555,10.288 327.015,11.877 L 324.781,12.404 C 324.383,11.154 323.806,10.244 323.05,9.674 C 322.293,9.104 321.341,8.819 320.195,8.819 C 318.877,8.819 317.775,9.135 316.889,9.768 C 316.004,10.401 315.382,11.25 315.023,12.317 C 314.664,13.384 314.485,14.483 314.485,15.616 C 314.485,17.077 314.697,18.352 315.122,19.442 C 315.547,20.532 316.207,21.346 317.104,21.885 C 318.001,22.424 318.971,22.694 320.016,22.694 C 321.287,22.694 322.362,22.327 323.243,21.592 C 324.124,20.857 324.719,19.768 325.031,18.323 z "
   id="path39" />
	<path
   style="fill:#231f20"
   d="M 330.207,24.35 L 330.207,7.163 L 332.488,7.163 L 332.488,14.226 L 341.379,14.226 L 341.379,7.163 L 343.66,7.163 L 343.66,24.35 L 341.379,24.35 L 341.379,16.256 L 332.488,16.256 L 332.488,24.35 L 330.207,24.35 z "
   id="path41" />
</g>
<g
   id="g43"
   transform="matrix(0.95,0,0,0.95,16.295925,13.269925)">
	<path
   style="fill:#231f20"
   d="M 353.57,27.334 L 353.57,28.85 L 345.039,28.85 C 345.027,28.469 345.089,28.103 345.225,27.751 C 345.444,27.171 345.792,26.6 346.274,26.038 C 346.754,25.476 347.444,24.827 348.343,24.091 C 349.739,22.938 350.686,22.027 351.183,21.357 C 351.681,20.687 351.93,20.052 351.93,19.454 C 351.93,18.828 351.705,18.301 351.254,17.87 C 350.805,17.44 350.218,17.225 349.494,17.225 C 348.728,17.225 348.117,17.454 347.658,17.913 C 347.199,18.372 346.967,19.007 346.961,19.818 L 345.336,19.646 C 345.447,18.43 345.867,17.504 346.596,16.868 C 347.325,16.23 348.302,15.912 349.53,15.912 C 350.768,15.912 351.75,16.255 352.471,16.941 C 353.194,17.627 353.555,18.477 353.555,19.491 C 353.555,20.007 353.45,20.514 353.238,21.012 C 353.026,21.51 352.675,22.035 352.185,22.586 C 351.694,23.137 350.881,23.893 349.745,24.854 C 348.794,25.652 348.183,26.192 347.912,26.477 C 347.641,26.76 347.416,27.046 347.239,27.333 L 353.57,27.333 L 353.57,27.334 z "
   id="path45" />
</g>
<g
   id="g47"
   transform="matrix(0.95,0,0,0.95,16.295925,13.269925)">
	<path
   style="fill:#231f20"
   d="M 354.897,15.985 C 354.897,13.132 355.663,10.9 357.195,9.287 C 358.727,7.673 360.705,6.866 363.128,6.866 C 364.715,6.866 366.145,7.245 367.419,8.003 C 368.693,8.762 369.664,9.818 370.332,11.174 C 371.001,12.529 371.335,14.068 371.335,15.786 C 371.335,17.529 370.983,19.088 370.279,20.463 C 369.576,21.838 368.58,22.88 367.29,23.587 C 366,24.294 364.609,24.648 363.116,24.648 C 361.498,24.648 360.052,24.257 358.778,23.476 C 357.504,22.695 356.539,21.627 355.882,20.276 C 355.225,18.923 354.897,17.494 354.897,15.985 z M 357.241,16.014 C 357.241,18.084 357.798,19.715 358.912,20.907 C 360.026,22.099 361.424,22.694 363.104,22.694 C 364.816,22.694 366.225,22.092 367.332,20.889 C 368.437,19.686 368.991,17.979 368.991,15.768 C 368.991,14.37 368.755,13.149 368.281,12.106 C 367.808,11.063 367.117,10.254 366.206,9.68 C 365.295,9.106 364.273,8.819 363.14,8.819 C 361.53,8.819 360.144,9.372 358.983,10.477 C 357.822,11.582 357.241,13.428 357.241,16.014 z "
   id="path49" />
	<path
   style="fill:#231f20"
   d="M 374.346,24.35 L 374.346,7.163 L 376.627,7.163 L 376.627,14.226 L 385.518,14.226 L 385.518,7.163 L 387.799,7.163 L 387.799,24.35 L 385.518,24.35 L 385.518,16.256 L 376.627,16.256 L 376.627,24.35 L 374.346,24.35 z "
   id="path51" />
</g>
<path
   style="fill:#231f20"
   d="M 319.04953,38.824925 L 320.66358,38.824925 L 320.66358,64.332425 L 319.85607,65.139925 L 319.04953,64.807425 L 319.04953,38.824925 z "
   id="polygon53" />
<path
   style="fill:#231f20"
   d="M 402.69703,60.152425 L 404.31108,64.047425 L 404.31108,100.09992 L 403.50358,99.814925 L 402.69703,97.867425 L 402.69703,60.152425 z "
   id="polygon55" />
<path
   style="fill:#231f20"
   d="M 559.87358,132.01992 L 562.58108,134.44242 L 561.77358,136.86492 L 510.90107,136.86492 L 513.56108,134.44242 L 514.36858,132.01992 L 559.87358,132.01992 z "
   id="polygon57" />
<path
   style="fill:#231f20"
   d="M 479.74108,101.90492 L 478.93453,99.814925 L 480.12203,99.767425 L 504.44108,121.47492 L 502.87358,127.88742 L 479.74108,101.90492 z "
   id="polygon59" />
<path
   style="fill:#231f20"
   d="M 512.75358,128.88492 L 513.56108,134.44242 L 510.90107,136.86492 L 507.62358,133.25492 L 509.42858,125.93992 L 512.75358,128.88492 z "
   id="polygon61" />
<path
   style="fill:#231f20"
   d="M 512.75358,64.807425 L 513.56108,65.139925 L 513.89358,65.947425 L 480.12203,99.767425 L 478.93453,99.814925 L 478.12608,99.482425 L 512.75358,64.807425 z "
   id="polygon63" />
<g
   id="g65"
   transform="matrix(0.95,0,0,0.95,16.295925,13.269925)">
	<path
   style="fill:#231f20"
   d="M 566.843,55.685 C 566.843,52.832 567.609,50.6 569.142,48.987 C 570.673,47.373 572.652,46.566 575.074,46.566 C 576.662,46.566 578.092,46.945 579.365,47.703 C 580.639,48.462 581.611,49.518 582.279,50.874 C 582.947,52.23 583.281,53.768 583.281,55.486 C 583.281,57.229 582.929,58.788 582.226,60.163 C 581.523,61.538 580.526,62.58 579.236,63.287 C 577.947,63.994 576.555,64.348 575.062,64.348 C 573.445,64.348 571.998,63.957 570.724,63.176 C 569.45,62.395 568.486,61.327 567.828,59.976 C 567.17,58.625 566.843,57.194 566.843,55.685 z M 569.187,55.714 C 569.187,57.784 569.744,59.415 570.859,60.607 C 571.972,61.798 573.371,62.394 575.05,62.394 C 576.763,62.394 578.171,61.792 579.279,60.589 C 580.384,59.386 580.937,57.679 580.937,55.468 C 580.937,54.07 580.701,52.849 580.228,51.806 C 579.755,50.763 579.063,49.954 578.152,49.38 C 577.242,48.806 576.22,48.519 575.086,48.519 C 573.477,48.519 572.09,49.072 570.93,50.177 C 569.767,51.283 569.187,53.128 569.187,55.714 z "
   id="path67" />
</g>
<path
   style="fill:#231f20"
   d="M 552.55953,64.332425 L 552.55953,65.947425 L 513.89358,65.947425 L 513.56108,65.139925 L 514.36858,64.332425 L 552.55953,64.332425 z "
   id="polygon69" />
<path
   style="fill:#231f20"
   d="M 596.44858,97.867425 L 597.25703,99.814925 L 596.06953,99.767425 L 569.89703,73.594925 L 571.03608,72.407425 L 596.44858,97.867425 z "
   id="polygon71" />
<path
   style="fill:#231f20"
   d="M 563.38857,139.00242 L 562.58108,134.44242 L 559.87358,132.01992 L 596.06953,99.767425 L 597.25703,99.814925 L 598.06358,100.09992 L 563.38857,139.00242 z "
   id="polygon73" />
<g
   id="g75"
   transform="matrix(0.95,0,0,0.95,16.295925,13.269925)">
	<path
   style="fill:#231f20"
   d="M 566.843,168.334 C 566.843,165.481 567.609,163.249 569.142,161.636 C 570.673,160.022 572.652,159.215 575.074,159.215 C 576.662,159.215 578.092,159.594 579.365,160.352 C 580.639,161.111 581.611,162.167 582.279,163.523 C 582.947,164.879 583.281,166.417 583.281,168.135 C 583.281,169.878 582.929,171.437 582.226,172.812 C 581.523,174.187 580.526,175.229 579.236,175.936 C 577.947,176.643 576.555,176.997 575.062,176.997 C 573.445,176.997 571.998,176.606 570.724,175.825 C 569.45,175.044 568.486,173.976 567.828,172.625 C 567.17,171.274 566.843,169.843 566.843,168.334 z M 569.187,168.364 C 569.187,170.434 569.744,172.065 570.859,173.257 C 571.972,174.448 573.371,175.044 575.05,175.044 C 576.763,175.044 578.171,174.442 579.279,173.239 C 580.384,172.036 580.937,170.329 580.937,168.118 C 580.937,166.72 580.701,165.499 580.228,164.456 C 579.755,163.413 579.063,162.604 578.152,162.03 C 577.242,161.456 576.22,161.169 575.086,161.169 C 573.477,161.169 572.09,161.722 570.93,162.827 C 569.767,163.932 569.187,165.778 569.187,168.364 z "
   id="path77" />
	<path
   style="fill:#231f20"
   d="M 586.292,176.7 L 586.292,159.512 L 588.573,159.512 L 588.573,166.575 L 597.464,166.575 L 597.464,159.512 L 599.745,159.512 L 599.745,176.7 L 597.464,176.7 L 597.464,168.606 L 588.573,168.606 L 588.573,176.7 L 586.292,176.7 z "
   id="path79" />
</g>
<path
   style="fill:#231f20"
   d="M 563.38857,162.37242 L 561.77358,162.37242 L 561.77358,136.86492 L 562.58108,134.44242 L 563.38857,139.00242 L 563.38857,162.37242 z "
   id="polygon81" />
<path
   style="fill:#231f20"
   d="M 479.74108,139.47742 L 478.12608,135.53492 L 478.12608,99.482425 L 478.93453,99.814925 L 479.74108,101.90492 L 479.74108,139.47742 z "
   id="polygon83" />
<path
   style="fill:#231f20"
   d="M 512.75358,103.42492 L 514.36858,90.124925 L 514.36858,132.01992 L 513.56108,134.44242 L 512.75358,128.88492 L 512.75358,103.42492 z "
   id="polygon85" />
<g
   id="g87"
   transform="matrix(0.95,0,0,0.95,16.295925,13.269925)">
	<path
   style="fill:#231f20"
   d="M 528.931,18.323 L 531.212,18.897 C 530.735,20.767 529.879,22.193 528.643,23.174 C 527.406,24.155 525.894,24.647 524.107,24.647 C 522.257,24.647 520.753,24.27 519.593,23.515 C 518.434,22.761 517.552,21.667 516.947,20.237 C 516.342,18.807 516.04,17.269 516.04,15.628 C 516.04,13.838 516.382,12.275 517.063,10.942 C 517.747,9.609 518.717,8.595 519.978,7.904 C 521.238,7.213 522.624,6.866 524.138,6.866 C 525.855,6.866 527.298,7.304 528.468,8.18 C 529.639,9.057 530.453,10.288 530.914,11.877 L 528.68,12.404 C 528.282,11.154 527.705,10.244 526.949,9.674 C 526.193,9.104 525.24,8.819 524.094,8.819 C 522.776,8.819 521.674,9.135 520.788,9.768 C 519.903,10.401 519.28,11.25 518.922,12.317 C 518.564,13.384 518.384,14.483 518.384,15.616 C 518.384,17.077 518.597,18.352 519.021,19.442 C 519.447,20.532 520.107,21.346 521.003,21.885 C 521.899,22.424 522.87,22.694 523.915,22.694 C 525.185,22.694 526.261,22.327 527.142,21.592 C 528.023,20.857 528.619,19.768 528.931,18.323 z "
   id="path89" />
	<path
   style="fill:#231f20"
   d="M 534.107,24.35 L 534.107,7.163 L 536.388,7.163 L 536.388,14.226 L 545.279,14.226 L 545.279,7.163 L 547.56,7.163 L 547.56,24.35 L 545.279,24.35 L 545.279,16.256 L 536.388,16.256 L 536.388,24.35 L 534.107,24.35 z "
   id="path91" />
</g>
<g
   id="g93"
   transform="matrix(0.95,0,0,0.95,16.295925,13.269925)">
	<path
   style="fill:#231f20"
   d="M 557.47,27.334 L 557.47,28.85 L 548.939,28.85 C 548.927,28.469 548.988,28.103 549.125,27.751 C 549.343,27.171 549.691,26.6 550.173,26.038 C 550.653,25.476 551.344,24.827 552.242,24.091 C 553.638,22.938 554.585,22.027 555.082,21.357 C 555.58,20.687 555.83,20.052 555.83,19.454 C 555.83,18.828 555.604,18.301 555.154,17.87 C 554.704,17.44 554.117,17.225 553.394,17.225 C 552.628,17.225 552.017,17.454 551.558,17.913 C 551.099,18.372 550.867,19.007 550.861,19.818 L 549.236,19.646 C 549.347,18.43 549.767,17.504 550.496,16.868 C 551.224,16.23 552.201,15.912 553.43,15.912 C 554.668,15.912 555.649,16.255 556.371,16.941 C 557.094,17.627 557.455,18.477 557.455,19.491 C 557.455,20.007 557.349,20.514 557.137,21.012 C 556.926,21.51 556.574,22.035 556.084,22.586 C 555.594,23.137 554.78,23.893 553.645,24.854 C 552.694,25.652 552.082,26.192 551.811,26.477 C 551.54,26.76 551.315,27.046 551.139,27.333 L 557.47,27.333 L 557.47,27.334 z "
   id="path95" />
</g>
<g
   id="g97"
   transform="matrix(0.95,0,0,0.95,16.295925,13.269925)">
	<path
   style="fill:#231f20"
   d="M 558.796,15.985 C 558.796,13.132 559.562,10.9 561.095,9.287 C 562.626,7.673 564.605,6.866 567.027,6.866 C 568.615,6.866 570.045,7.245 571.318,8.003 C 572.592,8.762 573.564,9.818 574.232,11.174 C 574.9,12.53 575.234,14.068 575.234,15.786 C 575.234,17.529 574.882,19.088 574.179,20.463 C 573.476,21.838 572.479,22.88 571.189,23.587 C 569.9,24.294 568.508,24.648 567.015,24.648 C 565.398,24.648 563.951,24.257 562.677,23.476 C 561.403,22.695 560.439,21.627 559.781,20.276 C 559.123,18.925 558.796,17.494 558.796,15.985 z M 561.14,16.014 C 561.14,18.084 561.697,19.715 562.812,20.907 C 563.925,22.098 565.324,22.694 567.003,22.694 C 568.716,22.694 570.124,22.092 571.232,20.889 C 572.337,19.686 572.89,17.979 572.89,15.768 C 572.89,14.37 572.654,13.149 572.181,12.106 C 571.708,11.063 571.016,10.254 570.105,9.68 C 569.195,9.106 568.173,8.819 567.039,8.819 C 565.43,8.819 564.043,9.372 562.883,10.477 C 561.72,11.583 561.14,13.428 561.14,16.014 z "
   id="path99" />
	<path
   style="fill:#231f20"
   d="M 578.246,24.35 L 578.246,7.163 L 580.527,7.163 L 580.527,14.226 L 589.418,14.226 L 589.418,7.163 L 591.699,7.163 L 591.699,24.35 L 589.418,24.35 L 589.418,16.256 L 580.527,16.256 L 580.527,24.35 L 578.246,24.35 z "
   id="path101" />
</g>
<path
   style="fill:#231f20"
   d="M 512.75358,38.824925 L 514.36858,38.824925 L 514.36858,64.332425 L 513.56108,65.139925 L 512.75358,64.807425 L 512.75358,38.824925 z "
   id="polygon103" />
<path
   style="fill:#231f20"
   d="M 596.44858,60.152425 L 598.06358,64.047425 L 598.06358,100.09992 L 597.25703,99.814925 L 596.44858,97.867425 L 596.44858,60.152425 z "
   id="polygon105" />
<g
   id="g107"
   transform="matrix(0.95,0,0,0.95,16.295925,13.269925)">
	<path
   style="fill:#231f20"
   d="M 439.093,92.185 C 439.093,89.332 439.859,87.1 441.392,85.487 C 442.923,83.873 444.902,83.066 447.324,83.066 C 448.912,83.066 450.342,83.445 451.615,84.203 C 452.889,84.962 453.861,86.018 454.529,87.374 C 455.197,88.73 455.531,90.268 455.531,91.986 C 455.531,93.729 455.179,95.288 454.476,96.663 C 453.773,98.038 452.776,99.08 451.486,99.787 C 450.197,100.494 448.805,100.848 447.312,100.848 C 445.695,100.848 444.248,100.457 442.974,99.676 C 441.7,98.895 440.736,97.827 440.078,96.476 C 439.42,95.125 439.093,93.694 439.093,92.185 z M 441.437,92.214 C 441.437,94.284 441.994,95.915 443.109,97.107 C 444.222,98.298 445.621,98.894 447.3,98.894 C 449.013,98.894 450.421,98.292 451.529,97.089 C 452.634,95.886 453.187,94.179 453.187,91.968 C 453.187,90.57 452.951,89.349 452.478,88.306 C 452.005,87.263 451.313,86.454 450.402,85.88 C 449.492,85.306 448.47,85.019 447.336,85.019 C 445.727,85.019 444.34,85.572 443.18,86.677 C 442.017,87.783 441.437,89.628 441.437,92.214 z "
   id="path109" />
</g>
<path
   style="fill:#231f20"
   d="M 434.75953,92.167425 L 433.61858,93.307425 L 404.31108,64.047425 L 402.69703,60.152425 L 434.75953,92.167425 z "
   id="polygon111" />
<path
   style="fill:#231f20"
   d="M 478.12608,135.53492 L 479.74108,139.47742 L 448.48608,108.22242 L 449.62608,107.08242 L 478.12608,135.53492 z "
   id="polygon113" />
<path
   style="fill:#231f20"
   d="M 598.06358,64.047425 L 596.44858,60.152425 L 635.54107,99.244925 L 634.40107,100.38492 L 598.06358,64.047425 z "
   id="polygon115" />
<g
   id="g117"
   transform="matrix(0.95,0,0,0.95,16.295925,13.269925)">
	<path
   style="fill:#231f20"
   d="M 235.144,92.185 C 235.144,89.332 235.91,87.1 237.442,85.487 C 238.974,83.873 240.952,83.066 243.375,83.066 C 244.962,83.066 246.392,83.445 247.666,84.203 C 248.94,84.962 249.911,86.018 250.58,87.374 C 251.249,88.73 251.582,90.268 251.582,91.986 C 251.582,93.729 251.23,95.288 250.527,96.663 C 249.824,98.038 248.827,99.08 247.537,99.787 C 246.247,100.494 244.856,100.848 243.363,100.848 C 241.745,100.848 240.299,100.457 239.025,99.676 C 237.751,98.895 236.786,97.827 236.129,96.476 C 235.472,95.125 235.144,93.694 235.144,92.185 z M 237.487,92.214 C 237.487,94.284 238.044,95.915 239.158,97.107 C 240.272,98.299 241.67,98.894 243.35,98.894 C 245.062,98.894 246.471,98.292 247.578,97.089 C 248.684,95.886 249.237,94.179 249.237,91.968 C 249.237,90.57 249.001,89.349 248.528,88.306 C 248.055,87.263 247.363,86.454 246.452,85.88 C 245.541,85.306 244.519,85.019 243.386,85.019 C 241.776,85.019 240.39,85.572 239.229,86.677 C 238.068,87.782 237.487,89.628 237.487,92.214 z "
   id="path119" />
</g>
<path
   style="fill:#231f20"
   d="M 284.37453,135.53492 L 285.98858,139.47742 L 254.78108,108.22242 L 255.92108,107.08242 L 284.37453,135.53492 z "
   id="polygon121" />
<path
   style="fill:#231f20"
   d="M 420.79357,325.15492 L 421.60108,327.57742 L 424.30953,329.99992 L 405.21357,329.99992 L 407.58857,325.15492 L 420.79357,325.15492 z "
   id="polygon123" />
<path
   style="fill:#231f20"
   d="M 369.87358,329.99992 L 372.58108,327.57742 L 373.38858,325.15492 L 400.98608,325.15492 L 398.61108,329.99992 L 369.87358,329.99992 z "
   id="polygon125" />
<path
   style="fill:#231f20"
   d="M 338.71357,295.03992 L 337.90607,292.90242 L 339.09357,292.85492 L 371.77358,321.97242 L 372.58108,327.57742 L 369.87358,329.99992 L 338.71357,295.03992 z "
   id="polygon127" />
<path
   style="fill:#231f20"
   d="M 371.77358,257.89492 L 372.58108,258.27492 L 372.91358,259.08242 L 339.09357,292.85492 L 337.90607,292.90242 L 337.09858,292.56992 L 371.77358,257.89492 z "
   id="polygon129" />
<g
   id="g131"
   transform="matrix(0.95,0,0,0.95,16.295925,13.269925)">
	<path
   style="fill:#231f20"
   d="M 418.394,258.985 C 418.394,256.132 419.16,253.9 420.691,252.287 C 422.224,250.673 424.201,249.866 426.625,249.866 C 428.211,249.866 429.642,250.245 430.916,251.003 C 432.189,251.762 433.16,252.818 433.829,254.174 C 434.498,255.53 434.832,257.068 434.832,258.786 C 434.832,260.529 434.48,262.088 433.776,263.463 C 433.072,264.838 432.076,265.88 430.787,266.587 C 429.496,267.294 428.105,267.648 426.613,267.648 C 424.994,267.648 423.549,267.257 422.275,266.476 C 421,265.695 420.035,264.627 419.379,263.276 C 418.723,261.925 418.394,260.494 418.394,258.985 z M 420.738,259.014 C 420.738,261.084 421.295,262.715 422.408,263.907 C 423.523,265.098 424.92,265.694 426.601,265.694 C 428.312,265.694 429.722,265.092 430.828,263.889 C 431.934,262.686 432.488,260.979 432.488,258.768 C 432.488,257.37 432.252,256.149 431.778,255.106 C 431.304,254.063 430.613,253.254 429.703,252.68 C 428.792,252.106 427.769,251.819 426.637,251.819 C 425.026,251.819 423.641,252.372 422.479,253.477 C 421.318,254.583 420.738,256.428 420.738,259.014 z "
   id="path133" />
</g>
<path
   style="fill:#231f20"
   d="M 411.57858,257.46742 L 411.57858,259.08242 L 372.91358,259.08242 L 372.58108,258.27492 L 373.38858,257.46742 L 411.57858,257.46742 z "
   id="polygon135" />
<path
   style="fill:#231f20"
   d="M 457.03608,292.56992 L 456.22858,292.90242 L 455.08858,292.85492 L 428.86858,266.68242 L 430.00953,265.54242 L 457.03608,292.56992 z "
   id="polygon137" />
<path
   style="fill:#231f20"
   d="M 424.30953,329.99992 L 421.60108,327.57742 L 422.40953,321.97242 L 455.08858,292.85492 L 456.22858,292.90242 L 455.42203,295.03992 L 424.30953,329.99992 z "
   id="polygon139" />
<path
   style="fill:#231f20"
   d="M 420.79357,293.32992 L 422.40953,286.39492 L 422.40953,321.97242 L 421.60108,327.57742 L 420.79357,325.15492 L 420.79357,293.32992 z "
   id="polygon141" />
<g
   id="g143"
   transform="matrix(0.95,0,0,0.95,16.295925,13.269925)">
	<path
   style="fill:#231f20"
   d="M 330.343,335.134 C 330.343,332.281 331.109,330.049 332.642,328.436 C 334.173,326.822 336.152,326.015 338.574,326.015 C 340.162,326.015 341.592,326.394 342.865,327.152 C 344.139,327.911 345.111,328.967 345.779,330.323 C 346.447,331.679 346.781,333.217 346.781,334.935 C 346.781,336.678 346.429,338.237 345.726,339.612 C 345.023,340.987 344.026,342.029 342.736,342.736 C 341.447,343.443 340.055,343.797 338.562,343.797 C 336.945,343.797 335.498,343.406 334.224,342.625 C 332.95,341.844 331.986,340.776 331.328,339.425 C 330.67,338.074 330.343,336.643 330.343,335.134 z M 332.687,335.164 C 332.687,337.234 333.244,338.865 334.359,340.057 C 335.472,341.248 336.871,341.844 338.55,341.844 C 340.263,341.844 341.671,341.242 342.779,340.039 C 343.884,338.836 344.437,337.129 344.437,334.918 C 344.437,333.52 344.201,332.299 343.728,331.256 C 343.255,330.213 342.563,329.404 341.652,328.83 C 340.742,328.256 339.72,327.969 338.586,327.969 C 336.977,327.969 335.59,328.522 334.43,329.627 C 333.267,330.732 332.687,332.578 332.687,335.164 z "
   id="path145" />
	<path
   style="fill:#231f20"
   d="M 349.792,343.5 L 349.792,326.312 L 352.073,326.312 L 352.073,333.375 L 360.964,333.375 L 360.964,326.312 L 363.245,326.312 L 363.245,343.5 L 360.964,343.5 L 360.964,335.406 L 352.073,335.406 L 352.073,343.5 L 349.792,343.5 z "
   id="path147" />
</g>
<path
   style="fill:#231f20"
   d="M 338.71357,320.78492 L 337.09858,320.78492 L 337.09858,292.56992 L 337.90607,292.90242 L 338.71357,295.03992 L 338.71357,320.78492 z "
   id="polygon149" />
<g
   id="g151"
   transform="matrix(0.95,0,0,0.95,16.295925,13.269925)">
	<path
   style="fill:#231f20"
   d="M 366.843,292.235 C 366.843,289.382 367.609,287.15 369.142,285.537 C 370.673,283.923 372.652,283.116 375.074,283.116 C 376.662,283.116 378.092,283.495 379.365,284.253 C 380.639,285.012 381.611,286.068 382.279,287.424 C 382.947,288.78 383.281,290.318 383.281,292.036 C 383.281,293.779 382.929,295.338 382.226,296.713 C 381.523,298.088 380.526,299.13 379.236,299.837 C 377.947,300.544 376.555,300.898 375.062,300.898 C 373.445,300.898 371.998,300.507 370.724,299.726 C 369.45,298.945 368.486,297.877 367.828,296.526 C 367.17,295.175 366.843,293.744 366.843,292.235 z M 369.187,292.264 C 369.187,294.334 369.744,295.965 370.859,297.157 C 371.972,298.348 373.371,298.944 375.05,298.944 C 376.763,298.944 378.171,298.342 379.279,297.139 C 380.384,295.936 380.937,294.229 380.937,292.018 C 380.937,290.62 380.701,289.399 380.228,288.356 C 379.755,287.313 379.063,286.504 378.152,285.93 C 377.242,285.356 376.22,285.069 375.086,285.069 C 373.477,285.069 372.09,285.622 370.93,286.727 C 369.767,287.833 369.187,289.678 369.187,292.264 z "
   id="path153" />
	<path
   style="fill:#231f20"
   d="M 386.292,300.6 L 386.292,283.412 L 388.573,283.412 L 388.573,290.475 L 397.464,290.475 L 397.464,283.412 L 399.745,283.412 L 399.745,300.6 L 397.464,300.6 L 397.464,292.506 L 388.573,292.506 L 388.573,300.6 L 386.292,300.6 z "
   id="path155" />
</g>
<path
   style="fill:#231f20"
   d="M 371.77358,301.21492 L 373.38858,301.21492 L 373.38858,325.15492 L 372.58108,327.57742 L 371.77358,321.97242 L 371.77358,301.21492 z "
   id="polygon157" />
<path
   style="fill:#231f20"
   d="M 371.77358,221.03492 L 373.38858,220.08492 L 373.38858,257.46742 L 372.58108,258.27492 L 371.77358,257.89492 L 371.77358,221.03492 z "
   id="polygon159" />
<path
   style="fill:#231f20"
   d="M 457.03608,323.87242 L 455.42203,337.31492 L 455.42203,295.03992 L 456.22858,292.90242 L 457.03608,292.56992 L 457.03608,323.87242 z "
   id="polygon161" />
<g
   id="g163"
   transform="matrix(0.95,0,0,0.95,16.295925,13.269925)">
	<path
   style="fill:#231f20"
   d="M 332.494,199.435 C 332.494,196.582 333.26,194.35 334.792,192.737 C 336.324,191.123 338.302,190.316 340.725,190.316 C 342.312,190.316 343.743,190.695 345.016,191.453 C 346.289,192.212 347.261,193.268 347.93,194.624 C 348.598,195.979 348.932,197.518 348.932,199.236 C 348.932,200.979 348.58,202.538 347.877,203.913 C 347.173,205.288 346.176,206.33 344.887,207.037 C 343.597,207.744 342.205,208.098 340.713,208.098 C 339.095,208.098 337.649,207.707 336.375,206.926 C 335.101,206.145 334.136,205.077 333.479,203.726 C 332.822,202.374 332.494,200.944 332.494,199.435 z M 334.837,199.464 C 334.837,201.534 335.394,203.165 336.508,204.357 C 337.622,205.549 339.02,206.144 340.7,206.144 C 342.412,206.144 343.821,205.542 344.928,204.339 C 346.035,203.136 346.587,201.429 346.587,199.218 C 346.587,197.82 346.351,196.599 345.878,195.556 C 345.404,194.513 344.712,193.704 343.802,193.13 C 342.892,192.556 341.869,192.269 340.736,192.269 C 339.126,192.269 337.74,192.822 336.579,193.927 C 335.418,195.032 334.837,196.878 334.837,199.464 z "
   id="path165" />
</g>
<path
   style="fill:#231f20"
   d="M 348.87858,207.78242 L 349.68608,206.40492 L 373.38858,220.08492 L 371.77358,221.03492 L 348.87858,207.78242 z "
   id="polygon167" />
<path
   style="fill:#231f20"
   d="M 307.36358,221.46242 L 307.36358,219.60992 L 330.25953,206.35742 L 331.06608,207.78242 L 307.36358,221.46242 z "
   id="polygon169" />
<g
   id="g171"
   transform="matrix(0.95,0,0,0.95,16.295925,13.269925)">
	<path
   style="fill:#231f20"
   d="M 237,207.8 L 237,190.612 L 239.281,190.612 L 239.281,197.675 L 248.172,197.675 L 248.172,190.612 L 250.453,190.612 L 250.453,207.8 L 248.172,207.8 L 248.172,199.706 L 239.281,199.706 L 239.281,207.8 L 237,207.8 z "
   id="path173" />
</g>
<g
   id="g175"
   transform="matrix(0.95,0,0,0.95,16.295925,13.269925)">
	<path
   style="fill:#231f20"
   d="M 252.461,208.894 L 254.039,208.675 C 254.222,209.571 254.531,210.217 254.967,210.613 C 255.404,211.008 255.939,211.206 256.574,211.206 C 257.327,211.206 257.96,210.948 258.473,210.434 C 258.986,209.918 259.242,209.28 259.242,208.518 C 259.242,207.792 259.004,207.194 258.526,206.722 C 258.049,206.25 257.443,206.015 256.707,206.015 C 256.406,206.015 256.032,206.074 255.585,206.191 L 255.762,204.8 C 255.868,204.812 255.953,204.818 256.018,204.818 C 256.692,204.818 257.299,204.643 257.839,204.292 C 258.379,203.941 258.649,203.4 258.649,202.669 C 258.649,202.09 258.452,201.61 258.058,201.231 C 257.664,200.851 257.156,200.661 256.533,200.661 C 255.916,200.661 255.401,200.855 254.99,201.243 C 254.579,201.631 254.314,202.213 254.197,202.989 L 252.619,202.708 C 252.812,201.646 253.253,200.823 253.939,200.24 C 254.625,199.656 255.479,199.364 256.5,199.364 C 257.204,199.364 257.853,199.514 258.445,199.816 C 259.037,200.117 259.49,200.528 259.805,201.048 C 260.118,201.569 260.276,202.121 260.276,202.706 C 260.276,203.262 260.127,203.768 259.828,204.224 C 259.529,204.68 259.087,205.042 258.501,205.312 C 259.263,205.488 259.855,205.853 260.28,206.406 C 260.704,206.961 260.917,207.653 260.917,208.485 C 260.917,209.611 260.506,210.564 259.684,211.346 C 258.862,212.128 257.823,212.52 256.567,212.52 C 255.434,212.52 254.493,212.183 253.745,211.511 C 252.994,210.836 252.567,209.965 252.461,208.894 z "
   id="path177" />
</g>
<g
   id="g179"
   transform="matrix(0.95,0,0,0.95,16.295925,13.269925)">
	<path
   style="fill:#231f20"
   d="M 275.039,201.773 L 277.32,202.347 C 276.844,204.217 275.987,205.643 274.751,206.624 C 273.514,207.605 272.001,208.097 270.214,208.097 C 268.364,208.097 266.86,207.72 265.701,206.965 C 264.542,206.211 263.66,205.117 263.055,203.687 C 262.45,202.256 262.148,200.719 262.148,199.078 C 262.148,197.288 262.489,195.725 263.172,194.392 C 263.855,193.059 264.826,192.045 266.087,191.354 C 267.347,190.663 268.733,190.316 270.247,190.316 C 271.964,190.316 273.407,190.754 274.577,191.63 C 275.748,192.507 276.563,193.738 277.023,195.327 L 274.789,195.854 C 274.391,194.604 273.814,193.694 273.058,193.124 C 272.301,192.554 271.349,192.269 270.203,192.269 C 268.885,192.269 267.783,192.585 266.897,193.218 C 266.012,193.851 265.39,194.7 265.031,195.767 C 264.672,196.834 264.493,197.933 264.493,199.066 C 264.493,200.527 264.705,201.802 265.13,202.892 C 265.555,203.982 266.215,204.796 267.112,205.335 C 268.009,205.874 268.979,206.144 270.024,206.144 C 271.295,206.144 272.37,205.777 273.251,205.042 C 274.132,204.307 274.727,203.218 275.039,201.773 z "
   id="path181" />
</g>
<path
   style="fill:#231f20"
   d="M 283.61358,207.78242 L 284.42108,206.40492 L 307.36358,219.60992 L 307.36358,221.46242 L 283.61358,207.78242 z "
   id="polygon183" />
<g
   id="g185"
   transform="matrix(0.95,0,0,0.95,16.295925,13.269925)">
	<path
   style="fill:#231f20"
   d="M 298.144,258.935 C 298.144,256.082 298.91,253.85 300.442,252.237 C 301.974,250.623 303.952,249.816 306.375,249.816 C 307.962,249.816 309.392,250.195 310.666,250.953 C 311.94,251.712 312.911,252.768 313.58,254.124 C 314.249,255.48 314.582,257.018 314.582,258.736 C 314.582,260.479 314.23,262.038 313.527,263.413 C 312.824,264.788 311.827,265.83 310.537,266.537 C 309.247,267.244 307.856,267.598 306.363,267.598 C 304.745,267.598 303.299,267.207 302.025,266.426 C 300.751,265.645 299.786,264.577 299.129,263.226 C 298.472,261.875 298.144,260.444 298.144,258.935 z M 300.487,258.964 C 300.487,261.034 301.044,262.665 302.158,263.857 C 303.272,265.049 304.67,265.644 306.35,265.644 C 308.062,265.644 309.471,265.042 310.578,263.839 C 311.684,262.636 312.237,260.929 312.237,258.718 C 312.237,257.32 312.001,256.099 311.528,255.056 C 311.055,254.013 310.363,253.204 309.452,252.63 C 308.541,252.056 307.519,251.769 306.386,251.769 C 304.776,251.769 303.39,252.322 302.229,253.427 C 301.068,254.532 300.487,256.378 300.487,258.964 z "
   id="path187" />
</g>
<path
   style="fill:#231f20"
   d="M 309.35858,218.94492 L 310.97358,218.94492 L 310.97358,248.39492 L 309.35858,248.39492 L 309.35858,218.94492 z "
   id="rect189" />
<path
   style="fill:#231f20"
   d="M 303.70607,218.94492 L 305.32107,218.94492 L 305.32107,248.39492 L 303.70607,248.39492 L 303.70607,218.94492 z "
   id="rect191" />
<path
   style="fill:#231f20"
   d="M 330.40107,468.17742 L 333.15607,470.59992 L 332.34858,473.02242 L 281.42858,473.02242 L 284.13702,470.59992 L 284.94358,468.17742 L 330.40107,468.17742 z "
   id="polygon193" />
<path
   style="fill:#231f20"
   d="M 250.26858,438.06242 L 249.46202,435.92492 L 250.64952,435.87742 L 283.32858,464.99492 L 284.13702,470.59992 L 281.42858,473.02242 L 250.26858,438.06242 z "
   id="polygon195" />
<path
   style="fill:#231f20"
   d="M 283.32858,400.91742 L 284.13702,401.24992 L 284.46857,402.05742 L 250.64952,435.87742 L 249.46202,435.92492 L 248.65357,435.59242 L 283.32858,400.91742 z "
   id="polygon197" />
<g
   id="g199"
   transform="matrix(0.95,0,0,0.95,16.295925,13.269925)">
	<path
   style="fill:#231f20"
   d="M 325.293,409.485 C 325.293,406.632 326.059,404.4 327.591,402.787 C 329.123,401.173 331.101,400.366 333.524,400.366 C 335.111,400.366 336.541,400.745 337.815,401.503 C 339.089,402.262 340.06,403.318 340.728,404.674 C 341.397,406.029 341.731,407.568 341.731,409.286 C 341.731,411.029 341.379,412.588 340.675,413.963 C 339.972,415.338 338.976,416.38 337.686,417.087 C 336.396,417.794 335.005,418.148 333.512,418.148 C 331.894,418.148 330.448,417.757 329.174,416.976 C 327.9,416.195 326.935,415.127 326.278,413.776 C 325.622,412.423 325.293,410.994 325.293,409.485 z M 327.637,409.514 C 327.637,411.584 328.194,413.215 329.308,414.407 C 330.422,415.599 331.82,416.194 333.5,416.194 C 335.212,416.194 336.621,415.592 337.728,414.389 C 338.833,413.186 339.387,411.479 339.387,409.268 C 339.387,407.87 339.151,406.649 338.677,405.606 C 338.204,404.563 337.513,403.754 336.602,403.18 C 335.691,402.606 334.669,402.319 333.536,402.319 C 331.926,402.319 330.54,402.872 329.379,403.977 C 328.218,405.082 327.637,406.928 327.637,409.514 z "
   id="path201" />
</g>
<path
   style="fill:#231f20"
   d="M 323.13358,400.44242 L 323.13358,402.05742 L 284.46857,402.05742 L 284.13702,401.24992 L 284.94358,400.44242 L 323.13358,400.44242 z "
   id="polygon203" />
<path
   style="fill:#231f20"
   d="M 366.97608,433.97742 L 367.78453,435.92492 L 366.64358,435.87742 L 340.42358,409.70492 L 341.56358,408.56492 L 366.97608,433.97742 z "
   id="polygon205" />
<path
   style="fill:#231f20"
   d="M 333.96357,475.11242 L 333.15607,470.59992 L 330.40107,468.17742 L 366.64358,435.87742 L 367.78453,435.92492 L 368.59107,436.20992 L 333.96357,475.11242 z "
   id="polygon207" />
<g
   id="g209"
   transform="matrix(0.95,0,0,0.95,16.295925,13.269925)">
	<path
   style="fill:#231f20"
   d="M 325.293,522.134 C 325.293,519.281 326.059,517.049 327.591,515.436 C 329.123,513.822 331.101,513.015 333.524,513.015 C 335.111,513.015 336.541,513.394 337.815,514.152 C 339.089,514.911 340.06,515.967 340.728,517.323 C 341.397,518.678 341.731,520.217 341.731,521.935 C 341.731,523.678 341.379,525.237 340.675,526.612 C 339.972,527.987 338.976,529.029 337.686,529.736 C 336.396,530.443 335.005,530.797 333.512,530.797 C 331.894,530.797 330.448,530.406 329.174,529.625 C 327.9,528.844 326.935,527.776 326.278,526.425 C 325.622,525.073 325.293,523.643 325.293,522.134 z M 327.637,522.164 C 327.637,524.234 328.194,525.865 329.308,527.057 C 330.422,528.249 331.82,528.844 333.5,528.844 C 335.212,528.844 336.621,528.242 337.728,527.039 C 338.833,525.836 339.387,524.129 339.387,521.918 C 339.387,520.52 339.151,519.299 338.677,518.256 C 338.204,517.213 337.513,516.404 336.602,515.83 C 335.691,515.256 334.669,514.969 333.536,514.969 C 331.926,514.969 330.54,515.522 329.379,516.627 C 328.218,517.732 327.637,519.578 327.637,522.164 z "
   id="path211" />
	<path
   style="fill:#231f20"
   d="M 344.743,530.5 L 344.743,513.312 L 347.024,513.312 L 347.024,520.375 L 355.915,520.375 L 355.915,513.312 L 358.196,513.312 L 358.196,530.5 L 355.915,530.5 L 355.915,522.406 L 347.024,522.406 L 347.024,530.5 L 344.743,530.5 z "
   id="path213" />
</g>
<path
   style="fill:#231f20"
   d="M 333.96357,498.48242 L 332.34858,498.48242 L 332.34858,473.02242 L 333.15607,470.59992 L 333.96357,475.11242 L 333.96357,498.48242 z "
   id="polygon215" />
<path
   style="fill:#231f20"
   d="M 250.26858,475.58742 L 248.65357,471.69242 L 248.65357,435.59242 L 249.46202,435.92492 L 250.26858,438.06242 L 250.26858,475.58742 z "
   id="polygon217" />
<g
   id="g219"
   transform="matrix(0.95,0,0,0.95,16.295925,13.269925)">
	<path
   style="fill:#231f20"
   d="M 273.693,442.785 C 273.693,439.932 274.459,437.7 275.991,436.087 C 277.523,434.473 279.501,433.666 281.924,433.666 C 283.511,433.666 284.941,434.045 286.215,434.803 C 287.489,435.562 288.46,436.618 289.129,437.974 C 289.798,439.33 290.131,440.868 290.131,442.586 C 290.131,444.329 289.779,445.888 289.076,447.263 C 288.373,448.638 287.376,449.68 286.086,450.387 C 284.796,451.094 283.405,451.448 281.912,451.448 C 280.294,451.448 278.848,451.057 277.574,450.276 C 276.3,449.495 275.335,448.427 274.678,447.076 C 274.021,445.725 273.693,444.293 273.693,442.785 z M 276.037,442.814 C 276.037,444.884 276.594,446.515 277.708,447.707 C 278.822,448.899 280.22,449.494 281.9,449.494 C 283.612,449.494 285.021,448.892 286.128,447.689 C 287.234,446.486 287.787,444.779 287.787,442.568 C 287.787,441.17 287.551,439.949 287.078,438.906 C 286.605,437.863 285.913,437.054 285.002,436.48 C 284.091,435.906 283.069,435.619 281.936,435.619 C 280.326,435.619 278.94,436.172 277.779,437.277 C 276.618,438.382 276.037,440.228 276.037,442.814 z "
   id="path221" />
	<path
   style="fill:#231f20"
   d="M 293.143,451.15 L 293.143,433.962 L 295.424,433.962 L 295.424,441.025 L 304.315,441.025 L 304.315,433.962 L 306.596,433.962 L 306.596,451.15 L 304.315,451.15 L 304.315,443.056 L 295.424,443.056 L 295.424,451.15 L 293.143,451.15 z "
   id="path223" />
</g>
<path
   style="fill:#231f20"
   d="M 283.32858,444.23742 L 284.94358,444.23742 L 284.94358,468.17742 L 284.13702,470.59992 L 283.32858,464.99492 L 283.32858,444.23742 z "
   id="polygon225" />
<g
   id="g227"
   transform="matrix(0.95,0,0,0.95,16.295925,13.269925)">
	<path
   style="fill:#231f20"
   d="M 287.381,372.172 L 289.662,372.746 C 289.186,374.616 288.329,376.042 287.093,377.023 C 285.856,378.004 284.343,378.496 282.556,378.496 C 280.706,378.496 279.202,378.119 278.043,377.364 C 276.884,376.61 276.002,375.516 275.397,374.086 C 274.792,372.655 274.49,371.118 274.49,369.477 C 274.49,367.687 274.831,366.124 275.514,364.791 C 276.197,363.458 277.168,362.444 278.429,361.753 C 279.689,361.062 281.075,360.715 282.589,360.715 C 284.306,360.715 285.749,361.153 286.919,362.029 C 288.09,362.906 288.905,364.137 289.365,365.726 L 287.131,366.253 C 286.733,365.003 286.156,364.093 285.4,363.523 C 284.643,362.953 283.691,362.668 282.545,362.668 C 281.227,362.668 280.125,362.984 279.239,363.617 C 278.354,364.25 277.732,365.099 277.373,366.166 C 277.014,367.233 276.835,368.332 276.835,369.465 C 276.835,370.926 277.047,372.201 277.472,373.291 C 277.897,374.381 278.557,375.195 279.454,375.734 C 280.351,376.273 281.321,376.543 282.366,376.543 C 283.637,376.543 284.712,376.176 285.593,375.441 C 286.474,374.706 287.069,373.618 287.381,372.172 z "
   id="path229" />
	<path
   style="fill:#231f20"
   d="M 291.775,369.834 C 291.775,366.981 292.541,364.749 294.073,363.136 C 295.605,361.522 297.583,360.715 300.006,360.715 C 301.593,360.715 303.023,361.094 304.297,361.852 C 305.571,362.611 306.542,363.667 307.211,365.023 C 307.88,366.379 308.213,367.917 308.213,369.635 C 308.213,371.378 307.861,372.937 307.158,374.312 C 306.455,375.687 305.458,376.729 304.168,377.436 C 302.878,378.143 301.487,378.497 299.994,378.497 C 298.376,378.497 296.93,378.106 295.656,377.325 C 294.382,376.544 293.417,375.476 292.76,374.125 C 292.103,372.774 291.775,371.343 291.775,369.834 z M 294.119,369.864 C 294.119,371.934 294.676,373.565 295.79,374.757 C 296.904,375.949 298.302,376.544 299.982,376.544 C 301.694,376.544 303.103,375.942 304.21,374.739 C 305.316,373.536 305.869,371.829 305.869,369.618 C 305.869,368.22 305.633,366.999 305.16,365.956 C 304.687,364.913 303.995,364.104 303.084,363.53 C 302.173,362.956 301.151,362.669 300.018,362.669 C 298.408,362.669 297.022,363.222 295.861,364.327 C 294.7,365.432 294.119,367.278 294.119,369.864 z "
   id="path231" />
	<path
   style="fill:#231f20"
   d="M 310.443,369.834 C 310.443,366.981 311.209,364.749 312.741,363.136 C 314.273,361.522 316.251,360.715 318.674,360.715 C 320.261,360.715 321.691,361.094 322.965,361.852 C 324.239,362.611 325.211,363.667 325.879,365.023 C 326.547,366.379 326.881,367.917 326.881,369.635 C 326.881,371.378 326.529,372.937 325.826,374.312 C 325.123,375.687 324.126,376.729 322.836,377.436 C 321.546,378.143 320.155,378.497 318.662,378.497 C 317.044,378.497 315.598,378.106 314.324,377.325 C 313.05,376.544 312.085,375.476 311.428,374.125 C 310.771,372.774 310.443,371.343 310.443,369.834 z M 312.787,369.864 C 312.787,371.934 313.344,373.565 314.458,374.757 C 315.572,375.949 316.97,376.544 318.65,376.544 C 320.362,376.544 321.771,375.942 322.878,374.739 C 323.984,373.536 324.537,371.829 324.537,369.618 C 324.537,368.22 324.301,366.999 323.828,365.956 C 323.355,364.913 322.663,364.104 321.752,363.53 C 320.841,362.956 319.819,362.669 318.686,362.669 C 317.076,362.669 315.69,363.222 314.529,364.327 C 313.368,365.432 312.787,367.278 312.787,369.864 z "
   id="path233" />
	<path
   style="fill:#231f20"
   d="M 329.892,378.2 L 329.892,361.012 L 332.173,361.012 L 332.173,368.075 L 341.064,368.075 L 341.064,361.012 L 343.345,361.012 L 343.345,378.2 L 341.064,378.2 L 341.064,370.106 L 332.173,370.106 L 332.173,378.2 L 329.892,378.2 z "
   id="path235" />
</g>
<path
   style="fill:#231f20"
   d="M 283.32858,374.93492 L 284.94358,374.93492 L 284.94358,400.44242 L 284.13702,401.24992 L 283.32858,400.91742 L 283.32858,374.93492 z "
   id="polygon237" />
<path
   style="fill:#231f20"
   d="M 366.97608,398.01992 L 368.59107,398.39992 L 368.59107,436.20992 L 367.78453,435.92492 L 366.97608,433.97742 L 366.97608,398.01992 z "
   id="polygon239" />
<path
   style="fill:#231f20"
   d="M 138.59607,468.17742 L 139.40357,470.59992 L 142.11202,473.02242 L 87.724525,473.02242 L 90.431075,470.59992 L 91.238575,468.17742 L 138.59607,468.17742 z "
   id="polygon241" />
<path
   style="fill:#231f20"
   d="M 56.563575,438.06242 L 55.756075,435.92492 L 56.943575,435.87742 L 89.623575,464.99492 L 90.431075,470.59992 L 87.724525,473.02242 L 56.563575,438.06242 z "
   id="polygon243" />
<path
   style="fill:#231f20"
   d="M 89.623575,400.91742 L 90.431075,401.24992 L 90.763575,402.05742 L 56.943575,435.87742 L 55.756075,435.92492 L 54.949525,435.59242 L 89.623575,400.91742 z "
   id="polygon245" />
<g
   id="g247"
   transform="matrix(0.95,0,0,0.95,16.295925,13.269925)">
	<path
   style="fill:#231f20"
   d="M 121.394,409.485 C 121.394,406.632 122.16,404.4 123.692,402.787 C 125.224,401.173 127.202,400.366 129.625,400.366 C 131.212,400.366 132.642,400.745 133.916,401.503 C 135.19,402.262 136.161,403.318 136.83,404.674 C 137.499,406.03 137.832,407.568 137.832,409.286 C 137.832,411.029 137.48,412.588 136.777,413.963 C 136.074,415.338 135.077,416.38 133.787,417.087 C 132.497,417.794 131.106,418.148 129.613,418.148 C 127.995,418.148 126.549,417.757 125.275,416.976 C 124.001,416.195 123.036,415.127 122.379,413.776 C 121.722,412.425 121.394,410.994 121.394,409.485 z M 123.737,409.514 C 123.737,411.584 124.294,413.215 125.408,414.407 C 126.522,415.599 127.92,416.194 129.6,416.194 C 131.312,416.194 132.721,415.592 133.828,414.389 C 134.934,413.186 135.487,411.479 135.487,409.268 C 135.487,407.87 135.251,406.649 134.778,405.606 C 134.305,404.563 133.613,403.754 132.702,403.18 C 131.791,402.606 130.769,402.319 129.636,402.319 C 128.026,402.319 126.64,402.872 125.479,403.977 C 124.318,405.082 123.737,406.928 123.737,409.514 z "
   id="path249" />
</g>
<path
   style="fill:#231f20"
   d="M 129.42858,400.44242 L 129.42858,402.05742 L 90.763575,402.05742 L 90.431075,401.24992 L 91.238575,400.44242 L 129.42858,400.44242 z "
   id="polygon251" />
<path
   style="fill:#231f20"
   d="M 173.27108,433.97742 L 174.07858,435.92492 L 172.89108,435.87742 L 146.71858,409.70492 L 147.85858,408.56492 L 173.27108,433.97742 z "
   id="polygon253" />
<path
   style="fill:#231f20"
   d="M 142.11202,473.02242 L 139.40357,470.59992 L 140.21202,464.99492 L 172.89108,435.87742 L 174.07858,435.92492 L 174.88702,436.20992 L 142.11202,473.02242 z "
   id="polygon255" />
<g
   id="g257"
   transform="matrix(0.95,0,0,0.95,16.295925,13.269925)">
	<path
   style="fill:#231f20"
   d="M 121.394,442.785 C 121.394,439.932 122.16,437.7 123.692,436.087 C 125.224,434.473 127.202,433.666 129.625,433.666 C 131.212,433.666 132.642,434.045 133.916,434.803 C 135.19,435.562 136.161,436.618 136.83,437.974 C 137.499,439.33 137.832,440.868 137.832,442.586 C 137.832,444.329 137.48,445.888 136.777,447.263 C 136.074,448.638 135.077,449.68 133.787,450.387 C 132.497,451.094 131.106,451.448 129.613,451.448 C 127.995,451.448 126.549,451.057 125.275,450.276 C 124.001,449.495 123.036,448.427 122.379,447.076 C 121.722,445.725 121.394,444.293 121.394,442.785 z M 123.737,442.814 C 123.737,444.884 124.294,446.515 125.408,447.707 C 126.522,448.899 127.92,449.494 129.6,449.494 C 131.312,449.494 132.721,448.892 133.828,447.689 C 134.934,446.486 135.487,444.779 135.487,442.568 C 135.487,441.17 135.251,439.949 134.778,438.906 C 134.305,437.863 133.613,437.054 132.702,436.48 C 131.791,435.906 130.769,435.619 129.636,435.619 C 128.026,435.619 126.64,436.172 125.479,437.277 C 124.318,438.382 123.737,440.228 123.737,442.814 z "
   id="path259" />
	<path
   style="fill:#231f20"
   d="M 140.843,451.15 L 140.843,433.962 L 143.124,433.962 L 143.124,441.025 L 152.015,441.025 L 152.015,433.962 L 154.296,433.962 L 154.296,451.15 L 152.015,451.15 L 152.015,443.056 L 143.124,443.056 L 143.124,451.15 L 140.843,451.15 z "
   id="path261" />
</g>
<path
   style="fill:#231f20"
   d="M 138.59607,444.23742 L 140.21202,444.23742 L 140.21202,464.99492 L 139.40357,470.59992 L 138.59607,468.17742 L 138.59607,444.23742 z "
   id="polygon263" />
<g
   id="g265"
   transform="matrix(0.95,0,0,0.95,16.295925,13.269925)">
	<path
   style="fill:#231f20"
   d="M 6.828,494.05 L 6.828,476.862 L 14.442,476.862 C 15.97,476.862 17.131,477.016 17.927,477.326 C 18.722,477.635 19.358,478.18 19.833,478.963 C 20.308,479.746 20.546,480.609 20.546,481.556 C 20.546,482.776 20.152,483.805 19.365,484.642 C 18.578,485.479 17.362,486.011 15.716,486.238 C 16.318,486.526 16.774,486.811 17.087,487.092 C 17.751,487.699 18.378,488.461 18.967,489.377 L 21.936,494.05 L 19.096,494.05 L 16.827,490.478 C 16.164,489.447 15.618,488.659 15.189,488.112 C 14.76,487.565 14.376,487.183 14.037,486.965 C 13.698,486.747 13.353,486.594 13.002,486.508 C 12.744,486.453 12.323,486.426 11.739,486.426 L 9.109,486.426 L 9.109,494.051 L 6.828,494.051 L 6.828,494.05 z M 9.109,484.457 L 13.986,484.457 C 15.023,484.457 15.833,484.35 16.417,484.135 C 17,483.92 17.444,483.575 17.748,483.103 C 18.051,482.63 18.203,482.117 18.203,481.561 C 18.203,480.748 17.909,480.08 17.321,479.556 C 16.733,479.032 15.804,478.77 14.535,478.77 L 9.109,478.77 L 9.109,484.457 z "
   id="path267" />
</g>
<g
   id="g269"
   transform="matrix(0.95,0,0,0.95,16.295925,13.269925)">
	<path
   style="fill:#231f20"
   d="M 27.678,485.05 L 27.678,481.972 L 22.069,481.972 L 22.069,480.519 L 27.96,472.16 L 29.257,472.16 L 29.257,480.519 L 30.991,480.519 L 30.991,481.972 L 29.257,481.972 L 29.257,485.05 L 27.678,485.05 z M 27.678,480.519 L 27.678,474.686 L 23.624,480.519 L 27.678,480.519 z "
   id="path271" />
</g>
<g
   id="g273"
   transform="matrix(0.95,0,0,0.95,16.295925,13.269925)">
	<path
   style="fill:#231f20"
   d="M 33.24,485.685 C 33.24,482.832 34.006,480.6 35.538,478.987 C 37.07,477.373 39.048,476.566 41.471,476.566 C 43.058,476.566 44.488,476.945 45.762,477.703 C 47.036,478.462 48.007,479.518 48.676,480.874 C 49.345,482.23 49.678,483.768 49.678,485.486 C 49.678,487.229 49.326,488.788 48.623,490.163 C 47.92,491.538 46.923,492.58 45.633,493.287 C 44.343,493.994 42.952,494.348 41.459,494.348 C 39.841,494.348 38.395,493.957 37.121,493.176 C 35.847,492.395 34.882,491.327 34.225,489.976 C 33.568,488.625 33.24,487.194 33.24,485.685 z M 35.583,485.714 C 35.583,487.784 36.14,489.415 37.254,490.607 C 38.368,491.799 39.766,492.394 41.446,492.394 C 43.158,492.394 44.567,491.792 45.674,490.589 C 46.78,489.386 47.333,487.679 47.333,485.468 C 47.333,484.07 47.097,482.849 46.624,481.806 C 46.151,480.763 45.459,479.954 44.548,479.38 C 43.637,478.806 42.615,478.519 41.482,478.519 C 39.872,478.519 38.486,479.072 37.325,480.177 C 36.164,481.282 35.583,483.128 35.583,485.714 z "
   id="path275" />
</g>
<path
   style="fill:#231f20"
   d="M 56.563575,463.80742 L 54.949525,463.80742 L 54.949525,435.59242 L 55.756075,435.92492 L 56.563575,438.06242 L 56.563575,463.80742 z "
   id="polygon277" />
<g
   id="g279"
   transform="matrix(0.95,0,0,0.95,16.295925,13.269925)">
	<path
   style="fill:#231f20"
   d="M 69.793,442.785 C 69.793,439.932 70.559,437.7 72.091,436.087 C 73.623,434.473 75.601,433.666 78.024,433.666 C 79.611,433.666 81.041,434.045 82.315,434.803 C 83.589,435.562 84.56,436.618 85.229,437.974 C 85.898,439.33 86.231,440.868 86.231,442.586 C 86.231,444.329 85.879,445.888 85.176,447.263 C 84.473,448.638 83.476,449.68 82.186,450.387 C 80.896,451.094 79.505,451.448 78.012,451.448 C 76.394,451.448 74.948,451.057 73.674,450.276 C 72.4,449.495 71.435,448.427 70.778,447.076 C 70.121,445.725 69.793,444.293 69.793,442.785 z M 72.137,442.814 C 72.137,444.884 72.694,446.515 73.808,447.707 C 74.922,448.899 76.32,449.494 78,449.494 C 79.712,449.494 81.121,448.892 82.228,447.689 C 83.334,446.486 83.887,444.779 83.887,442.568 C 83.887,441.17 83.651,439.949 83.178,438.906 C 82.705,437.863 82.013,437.054 81.102,436.48 C 80.191,435.906 79.169,435.619 78.036,435.619 C 76.426,435.619 75.04,436.172 73.879,437.277 C 72.718,438.382 72.137,440.228 72.137,442.814 z "
   id="path281" />
	<path
   style="fill:#231f20"
   d="M 89.243,451.15 L 89.243,433.962 L 91.524,433.962 L 91.524,441.025 L 100.415,441.025 L 100.415,433.962 L 102.696,433.962 L 102.696,451.15 L 100.415,451.15 L 100.415,443.056 L 91.524,443.056 L 91.524,451.15 L 89.243,451.15 z "
   id="path283" />
</g>
<path
   style="fill:#231f20"
   d="M 89.623575,444.23742 L 91.238575,444.23742 L 91.238575,468.17742 L 90.431075,470.59992 L 89.623575,464.99492 L 89.623575,444.23742 z "
   id="polygon285" />
<path
   style="fill:#231f20"
   d="M 89.623575,364.05742 L 91.238575,363.10742 L 91.238575,400.44242 L 90.431075,401.24992 L 89.623575,400.91742 L 89.623575,364.05742 z "
   id="polygon287" />
<g
   id="g289"
   transform="matrix(0.95,0,0,0.95,16.295925,13.269925)">
	<path
   style="fill:#231f20"
   d="M 197.543,445.985 C 197.543,443.132 198.309,440.9 199.841,439.287 C 201.373,437.673 203.351,436.866 205.774,436.866 C 207.361,436.866 208.791,437.245 210.065,438.003 C 211.339,438.762 212.31,439.818 212.979,441.174 C 213.648,442.53 213.981,444.068 213.981,445.786 C 213.981,447.529 213.629,449.088 212.926,450.463 C 212.223,451.838 211.226,452.88 209.936,453.587 C 208.646,454.294 207.255,454.648 205.762,454.648 C 204.144,454.648 202.698,454.257 201.424,453.476 C 200.15,452.695 199.185,451.627 198.528,450.276 C 197.871,448.925 197.543,447.494 197.543,445.985 z M 199.887,446.014 C 199.887,448.084 200.444,449.715 201.558,450.907 C 202.672,452.099 204.07,452.694 205.75,452.694 C 207.462,452.694 208.871,452.092 209.978,450.889 C 211.084,449.686 211.637,447.979 211.637,445.768 C 211.637,444.37 211.401,443.149 210.928,442.106 C 210.455,441.063 209.763,440.254 208.852,439.68 C 207.941,439.106 206.919,438.819 205.786,438.819 C 204.176,438.819 202.79,439.372 201.629,440.477 C 200.468,441.582 199.887,443.428 199.887,446.014 z "
   id="path291" />
</g>
<path
   style="fill:#231f20"
   d="M 205.28703,428.32492 L 204.14608,429.46492 L 174.88702,400.15742 L 173.27108,396.26242 L 205.28703,428.32492 z "
   id="polygon293" />
<path
   style="fill:#231f20"
   d="M 248.65357,471.69242 L 250.26858,475.58742 L 219.06203,444.33242 L 220.20108,443.19242 L 248.65357,471.69242 z "
   id="polygon295" />
<path
   style="fill:#231f20"
   d="M 174.88702,436.20992 L 174.07858,435.92492 L 173.27108,433.97742 L 173.27108,396.26242 L 174.88702,400.15742 L 174.88702,436.20992 z "
   id="polygon297" />
<path
   style="fill:#231f20"
   d="M 209.236,62.664425 L 210.37579,61.524151 L 241.0214,92.156765 L 239.88161,93.297039 L 209.236,62.664425 z "
   id="rect299" />
<path
   style="fill:none;stroke:#231f20;stroke-width:1.70000005"
   d="M 235.59107,184.45992 L 224.90357,184.45992 L 224.90357,14.077425 L 235.59107,14.077425 M 601.05702,14.077425 L 611.74452,14.077425 L 611.74452,184.45992 L 601.05702,184.45992"
   id="path301" />
<g
   id="g303"
   transform="matrix(0.95,0,0,0.95,16.295925,13.269925)">
	<path
   style="fill:#231f20"
   d="M 634.724,185.75 L 634.724,176.406 L 636.146,176.406 L 636.146,177.733 C 636.834,176.713 637.826,176.203 639.123,176.203 C 639.686,176.203 640.204,176.305 640.677,176.507 C 641.149,176.709 641.502,176.974 641.739,177.302 C 641.973,177.63 642.137,178.021 642.231,178.472 C 642.29,178.765 642.319,179.278 642.319,180.01 L 642.319,185.75 L 640.741,185.75 L 640.741,180.073 C 640.741,179.429 640.68,178.947 640.555,178.628 C 640.432,178.309 640.213,178.054 639.899,177.864 C 639.585,177.673 639.215,177.578 638.792,177.578 C 638.116,177.578 637.532,177.792 637.04,178.22 C 636.55,178.648 636.304,179.459 636.304,180.654 L 636.304,185.751 L 634.724,185.751 L 634.724,185.75 z "
   id="path305" />
</g>
<g
   id="g307"
   transform="matrix(0.95,0,0,0.95,16.295925,13.269925)">
	<path
   style="fill:#231f20"
   d="M 74.831,180.972 L 77.112,181.546 C 76.636,183.416 75.779,184.842 74.543,185.823 C 73.306,186.804 71.793,187.296 70.006,187.296 C 68.156,187.296 66.652,186.919 65.493,186.164 C 64.334,185.41 63.452,184.316 62.847,182.886 C 62.242,181.455 61.94,179.918 61.94,178.277 C 61.94,176.487 62.281,174.924 62.964,173.591 C 63.647,172.258 64.618,171.244 65.879,170.553 C 67.139,169.862 68.525,169.515 70.039,169.515 C 71.756,169.515 73.199,169.953 74.369,170.829 C 75.54,171.706 76.355,172.937 76.815,174.526 L 74.581,175.053 C 74.183,173.803 73.606,172.893 72.85,172.323 C 72.093,171.753 71.141,171.468 69.995,171.468 C 68.677,171.468 67.575,171.784 66.689,172.417 C 65.804,173.05 65.182,173.899 64.823,174.966 C 64.464,176.033 64.285,177.132 64.285,178.265 C 64.285,179.726 64.497,181.001 64.922,182.091 C 65.347,183.181 66.007,183.995 66.904,184.534 C 67.801,185.073 68.771,185.343 69.816,185.343 C 71.087,185.343 72.162,184.976 73.043,184.241 C 73.924,183.506 74.519,182.417 74.831,180.972 z "
   id="path309" />
	<path
   style="fill:#231f20"
   d="M 79.226,178.634 C 79.226,175.781 79.992,173.549 81.524,171.936 C 83.056,170.322 85.034,169.515 87.457,169.515 C 89.044,169.515 90.474,169.894 91.748,170.652 C 93.022,171.411 93.993,172.467 94.662,173.823 C 95.331,175.179 95.664,176.717 95.664,178.435 C 95.664,180.178 95.312,181.737 94.609,183.112 C 93.906,184.487 92.909,185.529 91.619,186.236 C 90.329,186.943 88.938,187.297 87.445,187.297 C 85.827,187.297 84.381,186.906 83.107,186.125 C 81.833,185.344 80.868,184.276 80.211,182.925 C 79.554,181.574 79.226,180.143 79.226,178.634 z M 81.569,178.664 C 81.569,180.734 82.126,182.365 83.24,183.557 C 84.354,184.749 85.752,185.344 87.432,185.344 C 89.144,185.344 90.553,184.742 91.66,183.539 C 92.766,182.336 93.319,180.629 93.319,178.418 C 93.319,177.02 93.083,175.799 92.61,174.756 C 92.137,173.713 91.445,172.904 90.534,172.33 C 89.623,171.756 88.601,171.469 87.468,171.469 C 85.858,171.469 84.472,172.022 83.311,173.127 C 82.15,174.232 81.569,176.078 81.569,178.664 z "
   id="path311" />
	<path
   style="fill:#231f20"
   d="M 97.894,178.634 C 97.894,175.781 98.66,173.549 100.192,171.936 C 101.724,170.322 103.702,169.515 106.125,169.515 C 107.712,169.515 109.142,169.894 110.416,170.652 C 111.69,171.411 112.661,172.467 113.33,173.823 C 113.999,175.179 114.332,176.717 114.332,178.435 C 114.332,180.178 113.98,181.737 113.277,183.112 C 112.574,184.487 111.577,185.529 110.287,186.236 C 108.997,186.943 107.606,187.297 106.113,187.297 C 104.495,187.297 103.049,186.906 101.775,186.125 C 100.501,185.344 99.536,184.276 98.879,182.925 C 98.222,181.574 97.894,180.143 97.894,178.634 z M 100.237,178.664 C 100.237,180.734 100.794,182.365 101.908,183.557 C 103.022,184.749 104.42,185.344 106.1,185.344 C 107.812,185.344 109.221,184.742 110.328,183.539 C 111.434,182.336 111.987,180.629 111.987,178.418 C 111.987,177.02 111.751,175.799 111.278,174.756 C 110.805,173.713 110.113,172.904 109.202,172.33 C 108.291,171.756 107.269,171.469 106.136,171.469 C 104.526,171.469 103.14,172.022 101.979,173.127 C 100.818,174.232 100.237,176.078 100.237,178.664 z "
   id="path313" />
	<path
   style="fill:#231f20"
   d="M 117.343,187 L 117.343,169.812 L 119.624,169.812 L 119.624,176.875 L 128.515,176.875 L 128.515,169.812 L 130.796,169.812 L 130.796,187 L 128.515,187 L 128.515,178.906 L 119.624,178.906 L 119.624,187 L 117.343,187 z "
   id="path315" />
</g>
<path
   style="fill:#231f20"
   d="M 82.974525,219.65742 L 82.166075,219.65742 L 81.358575,219.18242 L 81.358575,193.34242 L 82.974525,193.34242 L 82.974525,219.65742 z "
   id="polygon317" />
<path
   style="fill:#231f20"
   d="M 108.95608,223.07742 L 107.05608,230.10742 L 105.53703,229.48992 L 107.34108,222.83992 L 108.95608,223.07742 z "
   id="polygon319" />
<path
   style="fill:#231f20"
   d="M 104.72857,222.45992 L 103.11358,228.49242 L 101.59358,227.87492 L 103.11358,222.26992 L 104.72857,222.45992 z "
   id="polygon321" />
<path
   style="fill:#231f20"
   d="M 100.50108,221.88992 L 99.171075,226.87742 L 97.699525,226.25992 L 98.887025,221.65242 L 100.50108,221.88992 z "
   id="polygon323" />
<path
   style="fill:#231f20"
   d="M 96.321075,221.31992 L 95.228575,225.30992 L 93.756075,224.69242 L 94.706075,221.08242 L 96.321075,221.31992 z "
   id="polygon325" />
<path
   style="fill:#231f20"
   d="M 92.093575,220.74992 L 91.333575,223.69492 L 89.813575,223.07742 L 90.478575,220.51242 L 92.093575,220.74992 z "
   id="polygon327" />
<path
   style="fill:#231f20"
   d="M 87.913575,220.13242 L 87.391075,222.07992 L 85.871075,221.46242 L 86.299525,219.94242 L 87.913575,220.13242 z "
   id="polygon329" />
<g
   id="g331"
   transform="matrix(0.95,0,0,0.95,16.295925,13.269925)">
	<path
   style="fill:#231f20"
   d="M 0,246.55 L 0,229.362 L 2.281,229.362 L 2.281,236.425 L 11.172,236.425 L 11.172,229.362 L 13.453,229.362 L 13.453,246.55 L 11.172,246.55 L 11.172,238.456 L 2.281,238.456 L 2.281,246.55 L 0,246.55 z "
   id="path333" />
</g>
<g
   id="g335"
   transform="matrix(0.95,0,0,0.95,16.295925,13.269925)">
	<path
   style="fill:#231f20"
   d="M 15.461,247.644 L 17.039,247.425 C 17.222,248.321 17.531,248.967 17.967,249.363 C 18.404,249.758 18.939,249.956 19.574,249.956 C 20.327,249.956 20.96,249.698 21.473,249.184 C 21.986,248.668 22.242,248.03 22.242,247.268 C 22.242,246.542 22.004,245.944 21.526,245.472 C 21.049,245 20.443,244.765 19.707,244.765 C 19.406,244.765 19.032,244.824 18.585,244.941 L 18.762,243.55 C 18.868,243.562 18.953,243.568 19.018,243.568 C 19.692,243.568 20.299,243.393 20.839,243.042 C 21.379,242.691 21.649,242.15 21.649,241.419 C 21.649,240.84 21.452,240.36 21.058,239.981 C 20.664,239.601 20.156,239.411 19.533,239.411 C 18.916,239.411 18.401,239.605 17.99,239.993 C 17.579,240.381 17.314,240.963 17.197,241.739 L 15.619,241.458 C 15.812,240.396 16.253,239.573 16.939,238.99 C 17.625,238.406 18.479,238.114 19.5,238.114 C 20.204,238.114 20.853,238.264 21.445,238.566 C 22.037,238.867 22.49,239.278 22.805,239.798 C 23.118,240.319 23.276,240.871 23.276,241.456 C 23.276,242.012 23.127,242.518 22.828,242.974 C 22.529,243.43 22.087,243.792 21.501,244.062 C 22.263,244.238 22.855,244.603 23.28,245.156 C 23.704,245.711 23.917,246.403 23.917,247.235 C 23.917,248.361 23.506,249.314 22.684,250.096 C 21.862,250.878 20.823,251.27 19.567,251.27 C 18.434,251.27 17.493,250.933 16.745,250.261 C 15.994,249.586 15.567,248.715 15.461,247.644 z "
   id="path337" />
</g>
<g
   id="g339"
   transform="matrix(0.95,0,0,0.95,16.295925,13.269925)">
	<path
   style="fill:#231f20"
   d="M 38.039,240.523 L 40.32,241.097 C 39.844,242.967 38.987,244.393 37.751,245.374 C 36.514,246.355 35.001,246.847 33.214,246.847 C 31.364,246.847 29.86,246.47 28.701,245.715 C 27.542,244.961 26.66,243.867 26.055,242.437 C 25.45,241.006 25.148,239.469 25.148,237.828 C 25.148,236.038 25.489,234.475 26.172,233.142 C 26.855,231.809 27.826,230.795 29.087,230.104 C 30.347,229.413 31.733,229.066 33.247,229.066 C 34.964,229.066 36.407,229.504 37.577,230.38 C 38.748,231.257 39.563,232.488 40.023,234.077 L 37.789,234.604 C 37.391,233.354 36.814,232.444 36.058,231.874 C 35.301,231.304 34.349,231.019 33.203,231.019 C 31.885,231.019 30.783,231.335 29.897,231.968 C 29.012,232.601 28.39,233.45 28.031,234.517 C 27.672,235.584 27.493,236.683 27.493,237.816 C 27.493,239.277 27.705,240.552 28.13,241.642 C 28.555,242.732 29.215,243.546 30.112,244.085 C 31.009,244.624 31.979,244.894 33.024,244.894 C 34.295,244.894 35.37,244.527 36.251,243.792 C 37.132,243.057 37.727,241.968 38.039,240.523 z "
   id="path341" />
</g>
<path
   style="fill:#231f20"
   d="M 58.558575,234.23992 L 57.751075,232.81492 L 81.358575,219.18242 L 82.166075,219.65742 L 81.549525,220.93992 L 58.558575,234.23992 z "
   id="polygon343" />
<g
   id="g345"
   transform="matrix(0.95,0,0,0.95,16.295925,13.269925)">
	<path
   style="fill:#231f20"
   d="M 100.178,236.95 L 100.178,219.762 L 107.792,219.762 C 109.32,219.762 110.481,219.916 111.277,220.226 C 112.072,220.535 112.708,221.08 113.183,221.863 C 113.658,222.646 113.896,223.509 113.896,224.456 C 113.896,225.676 113.502,226.705 112.715,227.542 C 111.928,228.379 110.712,228.911 109.066,229.138 C 109.668,229.426 110.124,229.711 110.437,229.992 C 111.101,230.599 111.728,231.361 112.317,232.277 L 115.286,236.95 L 112.446,236.95 L 110.177,233.378 C 109.514,232.347 108.968,231.559 108.539,231.012 C 108.11,230.465 107.726,230.083 107.387,229.865 C 107.048,229.647 106.703,229.494 106.352,229.408 C 106.094,229.353 105.673,229.326 105.089,229.326 L 102.458,229.326 L 102.458,236.951 L 100.178,236.951 L 100.178,236.95 z M 102.459,227.356 L 107.336,227.356 C 108.373,227.356 109.183,227.249 109.767,227.034 C 110.35,226.819 110.794,226.474 111.098,226.002 C 111.401,225.529 111.553,225.016 111.553,224.46 C 111.553,223.647 111.259,222.979 110.671,222.455 C 110.083,221.931 109.154,221.669 107.885,221.669 L 102.459,221.669 L 102.459,227.356 L 102.459,227.356 z "
   id="path347" />
</g>
<g
   id="g349"
   transform="matrix(0.95,0,0,0.95,16.295925,13.269925)">
	<path
   style="fill:#231f20"
   d="M 124.185,218.215 L 122.607,218.34 C 122.465,217.719 122.265,217.267 122.006,216.986 C 121.576,216.535 121.047,216.309 120.417,216.309 C 119.91,216.309 119.463,216.45 119.076,216.732 C 118.581,217.095 118.189,217.627 117.901,218.324 C 117.612,219.021 117.463,220.015 117.451,221.304 C 117.833,220.724 118.3,220.293 118.852,220.012 C 119.404,219.731 119.983,219.59 120.588,219.59 C 121.646,219.59 122.546,219.978 123.289,220.755 C 124.032,221.53 124.404,222.534 124.404,223.765 C 124.404,224.574 124.229,225.326 123.88,226.019 C 123.53,226.714 123.05,227.246 122.439,227.615 C 121.828,227.984 121.135,228.169 120.359,228.169 C 119.037,228.169 117.959,227.685 117.125,226.715 C 116.291,225.745 115.874,224.147 115.874,221.92 C 115.874,219.431 116.336,217.62 117.26,216.489 C 118.066,215.505 119.151,215.012 120.516,215.012 C 121.534,215.012 122.368,215.296 123.018,215.864 C 123.665,216.431 124.055,217.214 124.185,218.215 z M 117.685,223.772 C 117.685,224.318 117.801,224.84 118.034,225.339 C 118.267,225.838 118.591,226.218 119.006,226.48 C 119.421,226.741 119.861,226.872 120.325,226.872 C 121.001,226.872 121.579,226.601 122.059,226.062 C 122.538,225.521 122.779,224.788 122.779,223.861 C 122.779,222.968 122.542,222.265 122.068,221.752 C 121.593,221.238 120.992,220.981 120.263,220.981 C 119.544,220.981 118.935,221.238 118.435,221.752 C 117.935,222.265 117.685,222.939 117.685,223.772 z "
   id="path351" />
</g>
<g
   id="g353"
   transform="matrix(0.95,0,0,0.95,16.295925,13.269925)">
	<path
   style="fill:#231f20"
   d="M 72.128,265.05 L 72.128,247.862 L 79.742,247.862 C 81.27,247.862 82.431,248.016 83.227,248.326 C 84.022,248.635 84.658,249.18 85.133,249.963 C 85.608,250.746 85.846,251.609 85.846,252.556 C 85.846,253.776 85.452,254.805 84.665,255.642 C 83.878,256.479 82.662,257.011 81.016,257.238 C 81.618,257.526 82.074,257.811 82.387,258.092 C 83.051,258.699 83.678,259.461 84.267,260.377 L 87.236,265.05 L 84.396,265.05 L 82.127,261.478 C 81.464,260.447 80.918,259.659 80.489,259.112 C 80.06,258.565 79.676,258.183 79.337,257.965 C 78.998,257.747 78.653,257.594 78.302,257.508 C 78.044,257.453 77.623,257.426 77.039,257.426 L 74.408,257.426 L 74.408,265.051 L 72.128,265.051 L 72.128,265.05 z M 74.409,255.457 L 79.286,255.457 C 80.323,255.457 81.133,255.35 81.717,255.135 C 82.3,254.92 82.744,254.575 83.048,254.103 C 83.351,253.63 83.503,253.117 83.503,252.561 C 83.503,251.748 83.209,251.08 82.621,250.556 C 82.033,250.032 81.104,249.77 79.835,249.77 L 74.409,249.77 L 74.409,255.457 L 74.409,255.457 z "
   id="path355" />
</g>
<g
   id="g357"
   transform="matrix(0.95,0,0,0.95,16.295925,13.269925)">
	<path
   style="fill:#231f20"
   d="M 92.978,256.05 L 92.978,252.972 L 87.369,252.972 L 87.369,251.519 L 93.26,243.16 L 94.557,243.16 L 94.557,251.519 L 96.291,251.519 L 96.291,252.972 L 94.557,252.972 L 94.557,256.05 L 92.978,256.05 z M 92.978,251.519 L 92.978,245.686 L 88.924,251.519 L 92.978,251.519 z "
   id="path359" />
</g>
<path
   style="fill:#231f20"
   d="M 92.568575,244.40492 L 85.538575,246.25742 L 81.549525,220.93992 L 82.166075,219.65742 L 82.974525,219.51492 L 92.568575,244.40492 z "
   id="polygon361" />
<g
   id="g363"
   transform="matrix(0.95,0,0,0.95,16.295925,13.269925)">
	<path
   style="fill:#231f20"
   d="M 8.978,358.35 L 8.978,341.162 L 16.592,341.162 C 18.12,341.162 19.281,341.316 20.077,341.626 C 20.872,341.935 21.508,342.48 21.983,343.263 C 22.458,344.046 22.696,344.909 22.696,345.856 C 22.696,347.076 22.302,348.105 21.515,348.942 C 20.728,349.779 19.512,350.311 17.866,350.538 C 18.468,350.826 18.924,351.111 19.237,351.392 C 19.901,351.999 20.528,352.761 21.117,353.677 L 24.086,358.35 L 21.246,358.35 L 18.977,354.778 C 18.314,353.747 17.768,352.959 17.339,352.412 C 16.91,351.865 16.526,351.483 16.187,351.265 C 15.848,351.047 15.503,350.894 15.152,350.808 C 14.894,350.753 14.473,350.726 13.889,350.726 L 11.258,350.726 L 11.258,358.351 L 8.978,358.351 L 8.978,358.35 z M 11.259,348.756 L 16.136,348.756 C 17.173,348.756 17.983,348.649 18.567,348.434 C 19.15,348.219 19.594,347.874 19.898,347.402 C 20.201,346.929 20.353,346.416 20.353,345.86 C 20.353,345.047 20.059,344.379 19.471,343.855 C 18.883,343.331 17.954,343.069 16.685,343.069 L 11.259,343.069 L 11.259,348.756 L 11.259,348.756 z "
   id="path365" />
</g>
<g
   id="g367"
   transform="matrix(0.95,0,0,0.95,16.295925,13.269925)">
	<path
   style="fill:#231f20"
   d="M 32.984,339.616 L 31.406,339.741 C 31.264,339.12 31.064,338.668 30.805,338.387 C 30.375,337.936 29.846,337.71 29.216,337.71 C 28.709,337.71 28.262,337.851 27.875,338.133 C 27.38,338.496 26.988,339.028 26.7,339.725 C 26.411,340.422 26.262,341.416 26.25,342.705 C 26.632,342.125 27.099,341.694 27.651,341.413 C 28.203,341.132 28.782,340.991 29.387,340.991 C 30.445,340.991 31.345,341.379 32.088,342.156 C 32.831,342.931 33.203,343.935 33.203,345.166 C 33.203,345.975 33.028,346.727 32.679,347.42 C 32.329,348.115 31.849,348.647 31.238,349.016 C 30.627,349.385 29.934,349.57 29.158,349.57 C 27.836,349.57 26.758,349.086 25.924,348.116 C 25.09,347.146 24.673,345.548 24.673,343.321 C 24.673,340.832 25.135,339.021 26.059,337.89 C 26.865,336.906 27.95,336.413 29.315,336.413 C 30.333,336.413 31.167,336.697 31.817,337.265 C 32.465,337.832 32.855,338.615 32.984,339.616 z M 26.484,345.172 C 26.484,345.718 26.6,346.24 26.833,346.739 C 27.066,347.238 27.39,347.618 27.805,347.88 C 28.22,348.141 28.66,348.272 29.124,348.272 C 29.8,348.272 30.378,348.001 30.858,347.462 C 31.337,346.921 31.578,346.188 31.578,345.261 C 31.578,344.368 31.341,343.665 30.867,343.152 C 30.392,342.638 29.791,342.381 29.062,342.381 C 28.343,342.381 27.734,342.638 27.234,343.152 C 26.734,343.666 26.484,344.339 26.484,345.172 z "
   id="path369" />
</g>
<g
   id="g371"
   transform="matrix(0.95,0,0,0.95,16.295925,13.269925)">
	<path
   style="fill:#231f20"
   d="M 35.39,349.985 C 35.39,347.132 36.156,344.9 37.688,343.287 C 39.22,341.673 41.198,340.866 43.621,340.866 C 45.208,340.866 46.638,341.245 47.912,342.003 C 49.186,342.762 50.157,343.818 50.826,345.174 C 51.495,346.53 51.828,348.068 51.828,349.786 C 51.828,351.529 51.476,353.088 50.773,354.463 C 50.07,355.838 49.073,356.88 47.783,357.587 C 46.493,358.294 45.102,358.648 43.609,358.648 C 41.991,358.648 40.545,358.257 39.271,357.476 C 37.997,356.695 37.032,355.627 36.375,354.276 C 35.718,352.925 35.39,351.494 35.39,349.985 z M 37.734,350.014 C 37.734,352.084 38.291,353.715 39.405,354.907 C 40.519,356.099 41.917,356.694 43.597,356.694 C 45.309,356.694 46.718,356.092 47.825,354.889 C 48.931,353.686 49.484,351.979 49.484,349.768 C 49.484,348.37 49.248,347.149 48.775,346.106 C 48.302,345.063 47.61,344.254 46.699,343.68 C 45.788,343.106 44.766,342.819 43.633,342.819 C 42.023,342.819 40.637,343.372 39.476,344.477 C 38.315,345.582 37.734,347.428 37.734,350.014 z "
   id="path373" />
</g>
<path
   style="fill:#231f20"
   d="M 66.728575,350.80492 L 67.537025,349.42742 L 91.238575,363.10742 L 89.623575,364.05742 L 66.728575,350.80492 z "
   id="polygon375" />
<g
   id="g377"
   transform="matrix(0.95,0,0,0.95,16.295925,13.269925)">
	<path
   style="fill:#231f20"
   d="M 484.894,212.235 C 484.894,209.382 485.66,207.15 487.191,205.537 C 488.724,203.923 490.701,203.116 493.125,203.116 C 494.711,203.116 496.142,203.495 497.416,204.253 C 498.689,205.012 499.66,206.068 500.329,207.424 C 500.998,208.78 501.332,210.318 501.332,212.036 C 501.332,213.779 500.98,215.338 500.276,216.713 C 499.572,218.088 498.576,219.13 497.287,219.837 C 495.996,220.544 494.605,220.898 493.113,220.898 C 491.494,220.898 490.049,220.507 488.775,219.726 C 487.5,218.945 486.535,217.877 485.879,216.526 C 485.223,215.175 484.894,213.744 484.894,212.235 z M 487.238,212.264 C 487.238,214.334 487.795,215.965 488.908,217.157 C 490.023,218.348 491.42,218.944 493.101,218.944 C 494.812,218.944 496.222,218.342 497.328,217.139 C 498.434,215.936 498.988,214.229 498.988,212.018 C 498.988,210.62 498.752,209.399 498.278,208.356 C 497.804,207.313 497.113,206.504 496.203,205.93 C 495.292,205.356 494.269,205.069 493.137,205.069 C 491.526,205.069 490.141,205.622 488.979,206.727 C 487.818,207.833 487.238,209.678 487.238,212.264 z "
   id="path379" />
</g>
<path
   style="fill:#231f20"
   d="M 487.91108,204.40992 L 486.34357,204.02992 L 514.36858,90.124925 L 512.75358,103.42492 L 487.91108,204.40992 z "
   id="polygon381" />
<path
   style="fill:#231f20"
   d="M 455.42203,337.31492 L 457.03608,323.87242 L 481.21358,224.78742 L 482.82858,225.16742 L 455.42203,337.31492 z "
   id="polygon383" />
<g
   id="g385"
   transform="matrix(0.95,0,0,0.95,16.295925,13.269925)">
	<path
   style="fill:#231f20"
   d="M 385.744,358.884 C 385.744,356.031 386.51,353.799 388.042,352.186 C 389.574,350.572 391.552,349.765 393.975,349.765 C 395.562,349.765 396.993,350.144 398.266,350.902 C 399.539,351.661 400.511,352.717 401.18,354.073 C 401.848,355.428 402.182,356.967 402.182,358.685 C 402.182,360.428 401.83,361.987 401.127,363.362 C 400.423,364.737 399.426,365.779 398.137,366.486 C 396.847,367.193 395.455,367.547 393.963,367.547 C 392.345,367.547 390.899,367.156 389.625,366.375 C 388.351,365.594 387.386,364.526 386.729,363.175 C 386.072,361.823 385.744,360.393 385.744,358.884 z M 388.087,358.914 C 388.087,360.984 388.644,362.615 389.758,363.807 C 390.872,364.999 392.27,365.594 393.95,365.594 C 395.662,365.594 397.071,364.992 398.178,363.789 C 399.285,362.586 399.837,360.879 399.837,358.668 C 399.837,357.27 399.601,356.049 399.128,355.006 C 398.654,353.963 397.962,353.154 397.052,352.58 C 396.142,352.006 395.119,351.719 393.986,351.719 C 392.376,351.719 390.99,352.272 389.829,353.377 C 388.668,354.482 388.087,356.328 388.087,358.914 z "
   id="path387" />
</g>
<path
   style="fill:#231f20"
   d="M 395.61858,344.67742 L 394.19358,343.96492 L 422.40953,286.39492 L 420.79357,293.32992 L 395.61858,344.67742 z "
   id="polygon389" />
<path
   style="fill:#231f20"
   d="M 384.74108,362.91742 L 386.16607,363.62992 L 368.59107,398.39992 L 366.97608,398.01992 L 384.74108,362.91742 z "
   id="polygon391" />
</svg>